<svg version="1.1" xmlns="http://www.w3.org/2000/svg" xmlns:xlink="http://www.w3.org/1999/xlink" width="500.000000pt" height="500.000000pt" viewBox="0,0,256,256"><g fill="#41f916" fill-rule="nonzero" stroke="none" stroke-width="1" stroke-linecap="butt" stroke-linejoin="miter" stroke-miterlimit="10" stroke-dasharray="" stroke-dashoffset="0" font-family="none" font-weight="none" font-size="none" text-anchor="none" style="mix-blend-mode: normal"><g transform="translate(0,12.544) scale(0.512,0.512)"><g transform="translate(0,500) scale(0.1,-0.1)"><path d="M2310,3410c0,-176 -3,-320 -7,-320c-5,0 -106,100 -226,222l-217,222l-125,-127c-69,-70 -125,-129 -125,-131c0,-2 30,-33 67,-68c37,-35 117,-111 178,-169c60,-58 135,-129 165,-157l55,-52h-332h-333v-180v-180h332h332l-110,-107c-61,-60 -165,-162 -233,-227l-122,-119l127,-128l128,-128l314,314c173,173 318,315 321,315c3,0 148,-142 321,-315l315,-315l128,128l128,129l-123,119c-67,65 -172,167 -233,226l-110,108h333h332v180v180h-332h-333l110,105c61,57 135,128 165,157c31,29 86,81 123,116c37,35 67,66 67,69c0,2 -57,61 -126,130l-126,126l-220,-222c-121,-122 -222,-220 -225,-217c-3,3 -5,147 -4,320l1,316h-190h-190z"></path></g></g></g></svg>